<svg width="371" height="98" viewBox="0 0 371 98" fill="none" xmlns="http://www.w3.org/2000/svg">
<path d="M22.5605 23.4736H8.49805V38H1.17383V2.45312H24.3184V8.38574H8.49805V17.5654H22.5605V23.4736ZM35.5488 38H28.4688V11.584H35.5488V38ZM28.0537 4.74805C28.0537 3.6901 28.4036 2.81934 29.1035 2.13574C29.8197 1.45215 30.7881 1.11035 32.0088 1.11035C33.2132 1.11035 34.1735 1.45215 34.8896 2.13574C35.6058 2.81934 35.9639 3.6901 35.9639 4.74805C35.9639 5.82227 35.5977 6.70117 34.8652 7.38477C34.1491 8.06836 33.1969 8.41016 32.0088 8.41016C30.8206 8.41016 29.8604 8.06836 29.1279 7.38477C28.4118 6.70117 28.0537 5.82227 28.0537 4.74805ZM47.8779 11.584L48.0977 14.6357C49.9857 12.2757 52.5166 11.0957 55.6904 11.0957C58.4899 11.0957 60.5732 11.9176 61.9404 13.5615C63.3076 15.2054 64.0075 17.6631 64.04 20.9346V38H56.9844V21.1055C56.9844 19.6081 56.6589 18.5257 56.0078 17.8584C55.3568 17.1748 54.2744 16.833 52.7607 16.833C50.7751 16.833 49.2858 17.6794 48.293 19.3721V38H41.2373V11.584H47.8779ZM68.3125 24.5967C68.3125 20.4788 69.2321 17.1992 71.0713 14.7578C72.9268 12.3164 75.4577 11.0957 78.6641 11.0957C81.2357 11.0957 83.3597 12.056 85.0361 13.9766V0.5H92.1162V38H85.7441L85.4023 35.1924C83.6445 37.3896 81.3822 38.4883 78.6152 38.4883C75.5065 38.4883 73.0081 37.2676 71.1201 34.8262C69.2484 32.3685 68.3125 28.9587 68.3125 24.5967ZM75.3682 25.1094C75.3682 27.5833 75.7995 29.4795 76.6621 30.7979C77.5247 32.1162 78.778 32.7754 80.4219 32.7754C82.6029 32.7754 84.141 31.8558 85.0361 30.0166V19.5918C84.1572 17.7526 82.6354 16.833 80.4707 16.833C77.069 16.833 75.3682 19.5918 75.3682 25.1094ZM125.344 38C125.018 37.3652 124.782 36.5758 124.636 35.6318C122.927 37.5361 120.705 38.4883 117.971 38.4883C115.383 38.4883 113.234 37.7396 111.525 36.2422C109.833 34.7448 108.986 32.8568 108.986 30.5781C108.986 27.7786 110.02 25.6302 112.087 24.1328C114.17 22.6354 117.173 21.8786 121.096 21.8623H124.343V20.3486C124.343 19.1279 124.025 18.1514 123.391 17.4189C122.772 16.6865 121.787 16.3203 120.437 16.3203C119.248 16.3203 118.312 16.6051 117.629 17.1748C116.962 17.7445 116.628 18.5257 116.628 19.5186H109.572C109.572 17.9886 110.044 16.5726 110.988 15.2705C111.932 13.9684 113.267 12.9512 114.992 12.2188C116.717 11.4701 118.654 11.0957 120.803 11.0957C124.058 11.0957 126.638 11.9176 128.542 13.5615C130.463 15.1891 131.423 17.484 131.423 20.4463V31.8965C131.439 34.403 131.789 36.2992 132.473 37.585V38H125.344ZM119.509 33.0928C120.55 33.0928 121.511 32.8649 122.39 32.4092C123.269 31.9372 123.92 31.3105 124.343 30.5293V25.9883H121.706C118.174 25.9883 116.294 27.209 116.066 29.6504L116.042 30.0654C116.042 30.9443 116.351 31.6686 116.97 32.2383C117.588 32.8079 118.435 33.0928 119.509 33.0928ZM143.337 11.584L143.557 14.6357C145.445 12.2757 147.976 11.0957 151.149 11.0957C153.949 11.0957 156.032 11.9176 157.399 13.5615C158.767 15.2054 159.466 17.6631 159.499 20.9346V38H152.443V21.1055C152.443 19.6081 152.118 18.5257 151.467 17.8584C150.816 17.1748 149.733 16.833 148.22 16.833C146.234 16.833 144.745 17.6794 143.752 19.3721V38H136.696V11.584H143.337ZM174.733 28.0146L179.616 11.584H187.185L176.564 42.1016L175.979 43.4932C174.4 46.9437 171.796 48.6689 168.166 48.6689C167.141 48.6689 166.099 48.5143 165.041 48.2051V42.8584L166.115 42.8828C167.45 42.8828 168.443 42.6794 169.094 42.2725C169.761 41.8656 170.282 41.1901 170.656 40.2461L171.486 38.0732L162.233 11.584H169.826L174.733 28.0146ZM8.15625 97H1.07617V70.584H8.15625V97ZM0.661133 63.748C0.661133 62.6901 1.01107 61.8193 1.71094 61.1357C2.42708 60.4521 3.39551 60.1104 4.61621 60.1104C5.82064 60.1104 6.78092 60.4521 7.49707 61.1357C8.21322 61.8193 8.57129 62.6901 8.57129 63.748C8.57129 64.8223 8.20508 65.7012 7.47266 66.3848C6.75651 67.0684 5.80436 67.4102 4.61621 67.4102C3.42806 67.4102 2.46777 67.0684 1.73535 66.3848C1.01921 65.7012 0.661133 64.8223 0.661133 63.748ZM20.4854 70.584L20.7051 73.6357C22.5931 71.2757 25.124 70.0957 28.2979 70.0957C31.0973 70.0957 33.1807 70.9176 34.5479 72.5615C35.915 74.2054 36.6149 76.6631 36.6475 79.9346V97H29.5918V80.1055C29.5918 78.6081 29.2663 77.5257 28.6152 76.8584C27.9642 76.1748 26.8818 75.833 25.3682 75.833C23.3825 75.833 21.8932 76.6794 20.9004 78.3721V97H13.8447V70.584H20.4854ZM62.917 64.0898V70.584H67.4336V75.7598H62.917V88.9434C62.917 89.9199 63.1042 90.6198 63.4785 91.043C63.8529 91.4661 64.569 91.6777 65.627 91.6777C66.4082 91.6777 67.0999 91.6208 67.7021 91.5068V96.8535C66.3187 97.2767 64.8945 97.4883 63.4297 97.4883C58.4818 97.4883 55.959 94.9899 55.8613 89.9932V75.7598H52.0039V70.584H55.8613V64.0898H62.917ZM78.249 73.4648C80.1208 71.2188 82.4727 70.0957 85.3047 70.0957C91.0339 70.0957 93.9391 73.4242 94.0205 80.0811V97H86.9648V80.2764C86.9648 78.7627 86.6393 77.6478 85.9883 76.9316C85.3372 76.1992 84.2549 75.833 82.7412 75.833C80.6742 75.833 79.1768 76.6305 78.249 78.2256V97H71.1934V59.5H78.249V73.4648ZM111.501 97.4883C107.627 97.4883 104.47 96.3001 102.028 93.9238C99.6032 91.5475 98.3906 88.3818 98.3906 84.4268V83.7432C98.3906 81.0902 98.9033 78.722 99.9287 76.6387C100.954 74.5391 102.403 72.9277 104.274 71.8047C106.162 70.6654 108.311 70.0957 110.72 70.0957C114.333 70.0957 117.173 71.235 119.24 73.5137C121.324 75.7923 122.365 79.0231 122.365 83.2061V86.0869H105.544C105.772 87.8122 106.455 89.1956 107.595 90.2373C108.75 91.279 110.207 91.7998 111.965 91.7998C114.683 91.7998 116.807 90.8151 118.337 88.8457L121.804 92.7275C120.746 94.2249 119.313 95.3968 117.507 96.2432C115.7 97.0732 113.698 97.4883 111.501 97.4883ZM110.695 75.8086C109.296 75.8086 108.156 76.2806 107.277 77.2246C106.415 78.1686 105.861 79.5195 105.617 81.2773H115.432V80.7158C115.399 79.1533 114.976 77.9489 114.162 77.1025C113.348 76.2399 112.193 75.8086 110.695 75.8086ZM161.818 87.4053L165.285 70.584H172.097L165.358 97H159.45L154.445 80.374L149.44 97H143.557L136.818 70.584H143.63L147.072 87.3809L151.906 70.584H157.009L161.818 87.4053ZM174.514 83.5479C174.514 80.9274 175.018 78.5918 176.027 76.541C177.036 74.4902 178.485 72.9033 180.373 71.7803C182.277 70.6572 184.483 70.0957 186.989 70.0957C190.554 70.0957 193.459 71.1862 195.705 73.3672C197.967 75.5482 199.229 78.5104 199.489 82.2539L199.538 84.0605C199.538 88.1133 198.407 91.3685 196.145 93.8262C193.882 96.2676 190.847 97.4883 187.038 97.4883C183.229 97.4883 180.186 96.2676 177.907 93.8262C175.645 91.3848 174.514 88.0645 174.514 83.8652V83.5479ZM181.569 84.0605C181.569 86.5671 182.041 88.4876 182.985 89.8223C183.929 91.1406 185.28 91.7998 187.038 91.7998C188.747 91.7998 190.082 91.1488 191.042 89.8467C192.002 88.5283 192.482 86.4287 192.482 83.5479C192.482 81.0902 192.002 79.1859 191.042 77.835C190.082 76.484 188.731 75.8086 186.989 75.8086C185.264 75.8086 183.929 76.484 182.985 77.835C182.041 79.1696 181.569 81.2448 181.569 84.0605ZM218.728 77.2002C217.767 77.07 216.921 77.0049 216.188 77.0049C213.519 77.0049 211.77 77.9082 210.939 79.7148V97H203.884V70.584H210.549L210.744 73.7334C212.16 71.3083 214.121 70.0957 216.628 70.0957C217.409 70.0957 218.142 70.2015 218.825 70.4131L218.728 77.2002ZM229.592 97H222.512V59.5H229.592V97ZM234.328 83.5967C234.328 79.4788 235.248 76.1992 237.087 73.7578C238.942 71.3164 241.473 70.0957 244.68 70.0957C247.251 70.0957 249.375 71.056 251.052 72.9766V59.5H258.132V97H251.76L251.418 94.1924C249.66 96.3896 247.398 97.4883 244.631 97.4883C241.522 97.4883 239.024 96.2676 237.136 93.8262C235.264 91.3685 234.328 87.9587 234.328 83.5967ZM241.384 84.1094C241.384 86.5833 241.815 88.4795 242.678 89.7979C243.54 91.1162 244.794 91.7754 246.438 91.7754C248.618 91.7754 250.157 90.8558 251.052 89.0166V78.5918C250.173 76.7526 248.651 75.833 246.486 75.833C243.085 75.833 241.384 78.5918 241.384 84.1094ZM263.967 93.5332C263.967 92.4102 264.341 91.4987 265.09 90.7988C265.855 90.099 266.807 89.749 267.946 89.749C269.102 89.749 270.054 90.099 270.803 90.7988C271.568 91.4987 271.95 92.4102 271.95 93.5332C271.95 94.64 271.576 95.5433 270.827 96.2432C270.078 96.9268 269.118 97.2686 267.946 97.2686C266.791 97.2686 265.839 96.9268 265.09 96.2432C264.341 95.5433 263.967 94.64 263.967 93.5332Z" fill="#09295E"/>
<path d="M213.405 32.7998C214.707 32.7998 215.765 32.4417 216.579 31.7256C217.393 31.0094 217.816 30.0573 217.849 28.8691H224.465C224.449 30.6595 223.96 32.3034 223 33.8008C222.04 35.2819 220.721 36.4375 219.045 37.2676C217.385 38.0814 215.546 38.4883 213.527 38.4883C209.751 38.4883 206.773 37.292 204.592 34.8994C202.411 32.4906 201.32 29.1702 201.32 24.9385V24.4746C201.32 20.4056 202.403 17.1585 204.567 14.7334C206.732 12.3083 209.702 11.0957 213.479 11.0957C216.783 11.0957 219.427 12.0397 221.413 13.9277C223.415 15.7995 224.432 18.2979 224.465 21.4229H217.849C217.816 20.0557 217.393 18.9489 216.579 18.1025C215.765 17.2399 214.691 16.8086 213.356 16.8086C211.713 16.8086 210.467 17.4108 209.621 18.6152C208.791 19.8034 208.376 21.7402 208.376 24.4258V25.1582C208.376 27.8763 208.791 29.8294 209.621 31.0176C210.451 32.2057 211.713 32.7998 213.405 32.7998ZM227.395 24.5479C227.395 21.9274 227.899 19.5918 228.908 17.541C229.917 15.4902 231.366 13.9033 233.254 12.7803C235.158 11.6572 237.364 11.0957 239.87 11.0957C243.435 11.0957 246.34 12.1862 248.586 14.3672C250.848 16.5482 252.11 19.5104 252.37 23.2539L252.419 25.0605C252.419 29.1133 251.288 32.3685 249.025 34.8262C246.763 37.2676 243.728 38.4883 239.919 38.4883C236.11 38.4883 233.067 37.2676 230.788 34.8262C228.526 32.3848 227.395 29.0645 227.395 24.8652V24.5479ZM234.45 25.0605C234.45 27.5671 234.922 29.4876 235.866 30.8223C236.81 32.1406 238.161 32.7998 239.919 32.7998C241.628 32.7998 242.963 32.1488 243.923 30.8467C244.883 29.5283 245.363 27.4287 245.363 24.5479C245.363 22.0902 244.883 20.1859 243.923 18.835C242.963 17.484 241.612 16.8086 239.87 16.8086C238.145 16.8086 236.81 17.484 235.866 18.835C234.922 20.1696 234.45 22.2448 234.45 25.0605ZM272.585 35.3145C270.843 37.4303 268.435 38.4883 265.358 38.4883C262.526 38.4883 260.362 37.6745 258.864 36.0469C257.383 34.4193 256.626 32.0348 256.594 28.8936V11.584H263.649V28.6494C263.649 31.4001 264.903 32.7754 267.409 32.7754C269.802 32.7754 271.446 31.9453 272.341 30.2852V11.584H279.421V38H272.78L272.585 35.3145ZM291.237 11.584L291.457 14.6357C293.345 12.2757 295.876 11.0957 299.05 11.0957C301.849 11.0957 303.933 11.9176 305.3 13.5615C306.667 15.2054 307.367 17.6631 307.399 20.9346V38H300.344V21.1055C300.344 19.6081 300.018 18.5257 299.367 17.8584C298.716 17.1748 297.634 16.833 296.12 16.833C294.134 16.833 292.645 17.6794 291.652 19.3721V38H284.597V11.584H291.237ZM321.218 5.08984V11.584H325.734V16.7598H321.218V29.9434C321.218 30.9199 321.405 31.6198 321.779 32.043C322.154 32.4661 322.87 32.6777 323.928 32.6777C324.709 32.6777 325.401 32.6208 326.003 32.5068V37.8535C324.619 38.2767 323.195 38.4883 321.73 38.4883C316.783 38.4883 314.26 35.9899 314.162 30.9932V16.7598H310.305V11.584H314.162V5.08984H321.218ZM344.509 18.2002C343.549 18.07 342.702 18.0049 341.97 18.0049C339.3 18.0049 337.551 18.9082 336.721 20.7148V38H329.665V11.584H336.33L336.525 14.7334C337.941 12.3083 339.903 11.0957 342.409 11.0957C343.19 11.0957 343.923 11.2015 344.606 11.4131L344.509 18.2002ZM358.229 28.0146L363.112 11.584H370.681L360.061 42.1016L359.475 43.4932C357.896 46.9437 355.292 48.6689 351.662 48.6689C350.637 48.6689 349.595 48.5143 348.537 48.2051V42.8584L349.611 42.8828C350.946 42.8828 351.939 42.6794 352.59 42.2725C353.257 41.8656 353.778 41.1901 354.152 40.2461L354.982 38.0732L345.729 11.584H353.322L358.229 28.0146Z" fill="#21ADCF"/>
</svg>
